static pose
version=1
nRows=1
nColumns=235
inDegrees=no
endheader
time	/jointset/ground_pelvis/pelvis_tilt/value	/jointset/ground_pelvis/pelvis_tilt/speed	/jointset/ground_pelvis/pelvis_list/value	/jointset/ground_pelvis/pelvis_list/speed	/jointset/ground_pelvis/pelvis_rotation/value	/jointset/ground_pelvis/pelvis_rotation/speed	/jointset/ground_pelvis/pelvis_tx/value	/jointset/ground_pelvis/pelvis_tx/speed	/jointset/ground_pelvis/pelvis_ty/value	/jointset/ground_pelvis/pelvis_ty/speed	/jointset/ground_pelvis/pelvis_tz/value	/jointset/ground_pelvis/pelvis_tz/speed	/jointset/hip_r/hip_flexion_r/value	/jointset/hip_r/hip_flexion_r/speed	/jointset/hip_r/hip_adduction_r/value	/jointset/hip_r/hip_adduction_r/speed	/jointset/hip_r/hip_rotation_r/value	/jointset/hip_r/hip_rotation_r/speed	/jointset/walker_knee_r/knee_angle_r/value	/jointset/walker_knee_r/knee_angle_r/speed	/jointset/patellofemoral_r/knee_angle_r_beta/value	/jointset/patellofemoral_r/knee_angle_r_beta/speed	/jointset/ankle_r/ankle_angle_r/value	/jointset/ankle_r/ankle_angle_r/speed	/jointset/subtalar_r/subtalar_angle_r/value	/jointset/subtalar_r/subtalar_angle_r/speed	/jointset/mtp_r/mtp_angle_r/value	/jointset/mtp_r/mtp_angle_r/speed	/jointset/hip_l/hip_flexion_l/value	/jointset/hip_l/hip_flexion_l/speed	/jointset/hip_l/hip_adduction_l/value	/jointset/hip_l/hip_adduction_l/speed	/jointset/hip_l/hip_rotation_l/value	/jointset/hip_l/hip_rotation_l/speed	/jointset/walker_knee_l/knee_angle_l/value	/jointset/walker_knee_l/knee_angle_l/speed	/jointset/patellofemoral_l/knee_angle_l_beta/value	/jointset/patellofemoral_l/knee_angle_l_beta/speed	/jointset/ankle_l/ankle_angle_l/value	/jointset/ankle_l/ankle_angle_l/speed	/jointset/subtalar_l/subtalar_angle_l/value	/jointset/subtalar_l/subtalar_angle_l/speed	/jointset/mtp_l/mtp_angle_l/value	/jointset/mtp_l/mtp_angle_l/speed	/jointset/back/lumbar_extension/value	/jointset/back/lumbar_extension/speed	/jointset/back/lumbar_bending/value	/jointset/back/lumbar_bending/speed	/jointset/back/lumbar_rotation/value	/jointset/back/lumbar_rotation/speed	/jointset/back/torso_tx/value	/jointset/back/torso_tx/speed	/jointset/back/torso_ty/value	/jointset/back/torso_ty/speed	/jointset/back/torso_tz/value	/jointset/back/torso_tz/speed	/jointset/acromial_r/arm_flex_r/value	/jointset/acromial_r/arm_flex_r/speed	/jointset/acromial_r/arm_add_r/value	/jointset/acromial_r/arm_add_r/speed	/jointset/acromial_r/arm_rot_r/value	/jointset/acromial_r/arm_rot_r/speed	/jointset/acromial_r/shoulder_rx/value	/jointset/acromial_r/shoulder_rx/speed	/jointset/acromial_r/shoulder_ry/value	/jointset/acromial_r/shoulder_ry/speed	/jointset/acromial_r/shoulder_rz/value	/jointset/acromial_r/shoulder_rz/speed	/jointset/elbow_r/elbow_flex_r/value	/jointset/elbow_r/elbow_flex_r/speed	/jointset/radioulnar_r/pro_sup_r/value	/jointset/radioulnar_r/pro_sup_r/speed	/jointset/radius_hand_r/wrist_flex_r/value	/jointset/radius_hand_r/wrist_flex_r/speed	/jointset/radius_hand_r/wrist_dev_r/value	/jointset/radius_hand_r/wrist_dev_r/speed	/jointset/acromial_l/arm_flex_l/value	/jointset/acromial_l/arm_flex_l/speed	/jointset/acromial_l/arm_add_l/value	/jointset/acromial_l/arm_add_l/speed	/jointset/acromial_l/arm_rot_l/value	/jointset/acromial_l/arm_rot_l/speed	/jointset/acromial_l/shoulder_lx/value	/jointset/acromial_l/shoulder_lx/speed	/jointset/acromial_l/shoulder_ly/value	/jointset/acromial_l/shoulder_ly/speed	/jointset/acromial_l/shoulder_lz/value	/jointset/acromial_l/shoulder_lz/speed	/jointset/elbow_l/elbow_flex_l/value	/jointset/elbow_l/elbow_flex_l/speed	/jointset/radioulnar_l/pro_sup_l/value	/jointset/radioulnar_l/pro_sup_l/speed	/jointset/radius_hand_l/wrist_flex_l/value	/jointset/radius_hand_l/wrist_flex_l/speed	/jointset/radius_hand_l/wrist_dev_l/value	/jointset/radius_hand_l/wrist_dev_l/speed	/jointset/neck/neck_extension/value	/jointset/neck/neck_extension/speed	/jointset/neck/neck_bending/value	/jointset/neck/neck_bending/speed	/jointset/neck/neck_rotation/value	/jointset/neck/neck_rotation/speed	/jointset/neck/head_tx/value	/jointset/neck/head_tx/speed	/jointset/neck/head_ty/value	/jointset/neck/head_ty/speed	/jointset/neck/head_tz/value	/jointset/neck/head_tz/speed	/forceset/addbrev_r/activation	/forceset/addlong_r/activation	/forceset/addlong_r/fiber_length	/forceset/addmagDist_r/activation	/forceset/addmagIsch_r/activation	/forceset/addmagIsch_r/fiber_length	/forceset/addmagMid_r/activation	/forceset/addmagProx_r/activation	/forceset/bflh_r/activation	/forceset/bflh_r/fiber_length	/forceset/bfsh_r/activation	/forceset/edl_r/activation	/forceset/edl_r/fiber_length	/forceset/ehl_r/activation	/forceset/ehl_r/fiber_length	/forceset/fdl_r/activation	/forceset/fdl_r/fiber_length	/forceset/fhl_r/activation	/forceset/fhl_r/fiber_length	/forceset/gaslat_r/activation	/forceset/gaslat_r/fiber_length	/forceset/gasmed_r/activation	/forceset/gasmed_r/fiber_length	/forceset/glmax1_r/activation	/forceset/glmax2_r/activation	/forceset/glmax3_r/activation	/forceset/glmed1_r/activation	/forceset/glmed2_r/activation	/forceset/glmed3_r/activation	/forceset/glmin1_r/activation	/forceset/glmin2_r/activation	/forceset/glmin3_r/activation	/forceset/glmin3_r/fiber_length	/forceset/grac_r/activation	/forceset/iliacus_r/activation	/forceset/perbrev_r/activation	/forceset/perbrev_r/fiber_length	/forceset/perlong_r/activation	/forceset/perlong_r/fiber_length	/forceset/piri_r/activation	/forceset/piri_r/fiber_length	/forceset/psoas_r/activation	/forceset/recfem_r/activation	/forceset/recfem_r/fiber_length	/forceset/sart_r/activation	/forceset/semimem_r/activation	/forceset/semimem_r/fiber_length	/forceset/semiten_r/activation	/forceset/semiten_r/fiber_length	/forceset/soleus_r/activation	/forceset/soleus_r/fiber_length	/forceset/tfl_r/activation	/forceset/tfl_r/fiber_length	/forceset/tibant_r/activation	/forceset/tibant_r/fiber_length	/forceset/tibpost_r/activation	/forceset/tibpost_r/fiber_length	/forceset/vasint_r/activation	/forceset/vasint_r/fiber_length	/forceset/vaslat_r/activation	/forceset/vaslat_r/fiber_length	/forceset/vasmed_r/activation	/forceset/vasmed_r/fiber_length	/forceset/addbrev_l/activation	/forceset/addlong_l/activation	/forceset/addlong_l/fiber_length	/forceset/addmagDist_l/activation	/forceset/addmagIsch_l/activation	/forceset/addmagIsch_l/fiber_length	/forceset/addmagMid_l/activation	/forceset/addmagProx_l/activation	/forceset/bflh_l/activation	/forceset/bflh_l/fiber_length	/forceset/bfsh_l/activation	/forceset/edl_l/activation	/forceset/edl_l/fiber_length	/forceset/ehl_l/activation	/forceset/ehl_l/fiber_length	/forceset/fdl_l/activation	/forceset/fdl_l/fiber_length	/forceset/fhl_l/activation	/forceset/fhl_l/fiber_length	/forceset/gaslat_l/activation	/forceset/gaslat_l/fiber_length	/forceset/gasmed_l/activation	/forceset/gasmed_l/fiber_length	/forceset/glmax1_l/activation	/forceset/glmax2_l/activation	/forceset/glmax3_l/activation	/forceset/glmed1_l/activation	/forceset/glmed2_l/activation	/forceset/glmed3_l/activation	/forceset/glmin1_l/activation	/forceset/glmin2_l/activation	/forceset/glmin3_l/activation	/forceset/glmin3_l/fiber_length	/forceset/grac_l/activation	/forceset/iliacus_l/activation	/forceset/perbrev_l/activation	/forceset/perbrev_l/fiber_length	/forceset/perlong_l/activation	/forceset/perlong_l/fiber_length	/forceset/piri_l/activation	/forceset/piri_l/fiber_length	/forceset/psoas_l/activation	/forceset/recfem_l/activation	/forceset/recfem_l/fiber_length	/forceset/sart_l/activation	/forceset/semimem_l/activation	/forceset/semimem_l/fiber_length	/forceset/semiten_l/activation	/forceset/semiten_l/fiber_length	/forceset/soleus_l/activation	/forceset/soleus_l/fiber_length	/forceset/tfl_l/activation	/forceset/tfl_l/fiber_length	/forceset/tibant_l/activation	/forceset/tibant_l/fiber_length	/forceset/tibpost_l/activation	/forceset/tibpost_l/fiber_length	/forceset/vasint_l/activation	/forceset/vasint_l/fiber_length	/forceset/vaslat_l/activation	/forceset/vaslat_l/fiber_length	/forceset/vasmed_l/activation	/forceset/vasmed_l/fiber_length
      0.01000000	      0.10132541	      0.00000000	     -0.00820305	      0.00000000	     -0.04696382	      0.00000000	      0.34162399	      0.00000000	      0.95875892	      0.00000000	     -0.20560367	      0.00000000	     -0.17293498	      0.00000000	     -0.15062679	      0.00000000	     -0.34240158	      0.00000000	     -0.00482522	      0.00000000	     -0.00482522	      0.00000000	      0.06008955	      0.00000000	      0.34648702	      0.00000000	      0.13863782	      0.00000000	     -0.15661203	      0.00000000	     -0.14954168	      0.00000000	     -0.31968442	      0.00000000	      0.01016105	      0.00000000	      0.01016105	      0.00000000	      0.06219552	      0.00000000	      0.30792603	      0.00000000	      0.14489238	      0.00000000	     -0.05880755	      0.00000000	     -0.02179521	      0.00000000	      0.05957800	      0.00000000	      0.08884885	      0.00000000	      0.01645365	      0.00000000	     -0.00458540	      0.00000000	     -0.22703480	      0.00000000	     -0.62490414	      0.00000000	      0.11249865	      0.00000000	     -0.03080059	      0.00000000	     -0.03929225	      0.00000000	     -0.00999632	      0.00000000	      0.14634578	      0.00000000	      0.08390721	      0.00000000	     -0.08380913	      0.00000000	     -0.67459911	      0.00000000	     -0.09090916	      0.00000000	     -0.69414287	      0.00000000	     -0.10194820	      0.00000000	     -0.01317657	      0.00000000	     -0.04110772	      0.00000000	      0.01151250	      0.00000000	      0.27982910	      0.00000000	      0.11862960	      0.00000000	     -0.02728145	      0.00000000	     -0.66180374	      0.00000000	      0.25504379	      0.00000000	     -0.00416563	      0.00000000	     -0.06004760	      0.00000000	      0.00295607	      0.00000000	      0.01444804	      0.00000000	      0.00050294	      0.00000000	      0.01000000	      0.01000000	      0.10000000	      0.01000000	      0.01000000	      0.10000000	      0.01000000	      0.01000000	      0.01000000	      0.10000000	      0.01000000	      0.01000000	      0.10000000	      0.01000000	      0.10000000	      0.01000000	      0.10000000	      0.01000000	      0.10000000	      0.01000000	      0.10000000	      0.01000000	      0.10000000	      0.01000000	      0.01000000	      0.01000000	      0.01000000	      0.01000000	      0.01000000	      0.01000000	      0.01000000	      0.01000000	      0.10000000	      0.01000000	      0.01000000	      0.01000000	      0.10000000	      0.01000000	      0.10000000	      0.01000000	      0.10000000	      0.01000000	      0.01000000	      0.10000000	      0.01000000	      0.01000000	      0.10000000	      0.01000000	      0.10000000	      0.01000000	      0.10000000	      0.01000000	      0.10000000	      0.01000000	      0.10000000	      0.01000000	      0.10000000	      0.01000000	      0.10000000	      0.01000000	      0.10000000	      0.01000000	      0.10000000	      0.01000000	      0.01000000	      0.10000000	      0.01000000	      0.01000000	      0.10000000	      0.01000000	      0.01000000	      0.01000000	      0.10000000	      0.01000000	      0.01000000	      0.10000000	      0.01000000	      0.10000000	      0.01000000	      0.10000000	      0.01000000	      0.10000000	      0.01000000	      0.10000000	      0.01000000	      0.10000000	      0.01000000	      0.01000000	      0.01000000	      0.01000000	      0.01000000	      0.01000000	      0.01000000	      0.01000000	      0.01000000	      0.10000000	      0.01000000	      0.01000000	      0.01000000	      0.10000000	      0.01000000	      0.10000000	      0.01000000	      0.10000000	      0.01000000	      0.01000000	      0.10000000	      0.01000000	      0.01000000	      0.10000000	      0.01000000	      0.10000000	      0.01000000	      0.10000000	      0.01000000	      0.10000000	      0.01000000	      0.10000000	      0.01000000	      0.10000000	      0.01000000	      0.10000000	      0.01000000	      0.10000000	      0.01000000	      0.10000000
